<svg width="330" height="101" viewBox="0 0 330 101" fill="none" xmlns="http://www.w3.org/2000/svg">
<path d="M24.5866 1.11585H15.3086L0 34.2768H8.58212L13.0355 24.4706H26.7669L31.2667 34.2768H39.9416L24.5866 1.11585ZM19.9012 8.79023L24.0763 17.8858H15.7725C17.1178 14.8539 18.5559 11.8221 19.9012 8.79023Z" fill="#101010"/>
<path d="M67.4421 34.2768C74.4006 34.2768 79.086 30.1554 79.086 23.9969C79.086 20.2544 77.0912 17.1278 74.1686 15.375C75.5603 14.0012 76.5345 11.9642 76.5345 9.59557C76.5345 4.28982 72.313 1.11585 66.004 1.11585H45.175V34.2768H67.4421ZM67.0246 19.6386C69.3905 19.6386 70.9677 21.1545 70.9677 23.6653C70.9677 26.1287 69.4369 27.6446 67.071 27.6446H53.1077V19.6386H67.0246ZM65.7257 7.79541C67.4421 7.79541 68.6482 8.74286 68.6482 10.4957C68.6482 12.2011 67.4421 13.1012 65.8185 13.1012H53.1077V7.79541H65.7257Z" fill="#101010"/>
<path d="M83.0668 17.7437C83.0668 28.6868 90.9067 34.94 102.643 34.94C114.38 34.94 122.22 28.6868 122.22 17.7437C122.22 6.75321 114.38 0.5 102.643 0.5C90.9067 0.5 83.0668 6.75321 83.0668 17.7437ZM102.643 7.65329C109.37 7.65329 114.148 11.1589 114.148 17.7437C114.148 24.2811 109.37 27.7867 102.643 27.7867C95.9168 27.7867 91.185 24.2811 91.185 17.7437C91.185 11.1589 95.9168 7.65329 102.643 7.65329Z" fill="#101010"/>
<path d="M153.394 19.0228C153.394 24.6127 149.544 27.7867 144.441 27.7867C139.014 27.7867 135.534 24.5654 135.534 19.0228V1.11585H127.602V19.2122C127.602 29.35 134.189 34.94 144.441 34.94C154.74 34.94 161.327 29.35 161.327 19.2122V1.11585H153.394V19.0228Z" fill="#101010"/>
<path d="M200.977 8.31651V1.11585H165.257V8.31651H179.128V34.2768H187.06V8.31651H200.977Z" fill="#101010"/>
<path d="M250.81 8.31651V1.11585H215.09V8.31651H228.961V34.2768H236.893V8.31651H250.81Z" fill="#101010"/>
<path d="M281.579 34.2768H289.512V1.11585H281.579V11.5379H263.719V1.11585H255.787V34.2768H263.719V18.7385H281.579V34.2768Z" fill="#101010"/>
<path d="M328 34.2768V27.4077H306.893V19.3544H325.866V12.6274H306.893V8.03227H327.814V1.11585H298.96V34.2768H328Z" fill="#101010"/>
<path d="M5.74023 49.5798H4.74023V50.5798V97.9525V98.9525H5.74023H17.4181H18.4181V97.9525V79.6651H35.3787C40.7249 79.6651 45.4344 78.5254 48.8337 76.0375C52.2779 73.5168 54.271 69.687 54.271 64.5886C54.271 60.0147 52.4989 56.23 49.4411 53.6027C46.3983 50.9882 42.156 49.5798 37.2908 49.5798H5.74023ZM130.237 76.0934V74.5693L128.839 75.1761L118.39 79.7103L117.788 79.9715V80.6277V83.064C117.788 93.0911 126.099 99.9 137.022 99.9C143.574 99.9 148.779 97.9403 152.341 94.2199C155.897 90.5061 157.69 85.1703 157.69 78.6651V50.5798V49.5798H156.69H133.949H132.949V50.5798V60.8664V61.8664H133.949H144.012V78.6651C144.012 82.0402 143.42 84.2447 142.329 85.6011C141.28 86.9058 139.611 87.6133 136.954 87.6133C134.756 87.6133 133.132 86.8399 132.033 85.4607C130.908 84.0488 130.237 81.8805 130.237 78.9358V76.0934ZM211.683 98.9525H212.683V97.9525V88.1396V87.1396H211.683H181.61V77.6348H208.542H209.542V76.6348V67.0249V66.0249H208.542H181.61V61.4604H211.41H212.41V60.4604V50.5798V49.5798H211.41H168.933H167.933V50.5798V97.9525V98.9525H168.933H211.683ZM273.839 61.586L274.416 61.2363V61.8664H275.416H294.835V97.9525V98.9525H295.835H307.513H308.513V97.9525V61.8664H328H329V60.8664V50.5798V49.5798H328H275.416H274.416V50.5798V60.5655L274.149 60.171C269.34 53.0582 260.31 48.7 248.531 48.7C239.731 48.7 232.276 50.9746 227.003 55.3603C221.707 59.7653 218.712 66.2176 218.712 74.3338C218.712 82.4177 221.708 88.8529 227.004 93.2488C232.277 97.6254 239.731 99.9 248.531 99.9C260.45 99.9 269.553 95.4029 274.292 88.2164L274.865 87.3479L273.974 86.8099L264.004 80.7868L263.137 80.2634L262.625 81.1363C260.199 85.2662 255.274 87.681 248.531 87.681C243.736 87.681 239.765 86.4675 237.014 84.2334C234.29 82.0211 232.663 78.7308 232.663 74.3338C232.663 69.9007 234.292 66.5936 237.015 64.374C239.766 62.1325 243.736 60.919 248.531 60.919C255.205 60.919 259.997 63.2662 262.423 67.334L262.939 68.1995L263.801 67.6768L273.839 61.586ZM36.9494 61.325C38.1579 61.325 38.9937 61.6725 39.5231 62.1853C40.0487 62.6945 40.3883 63.479 40.3883 64.5886C40.3883 65.7388 40.0446 66.5401 39.519 67.0551C38.9909 67.5725 38.1578 67.9198 36.9494 67.9198H18.4181V61.325H36.9494ZM56.1199 74.3338C56.1199 82.4177 59.1154 88.8529 64.4116 93.2488C69.6845 97.6254 77.1386 99.9 85.9389 99.9C94.7391 99.9 102.193 97.6254 107.466 93.2488C112.762 88.8529 115.758 82.4177 115.758 74.3338C115.758 66.2176 112.763 59.7653 107.467 55.3603C102.194 50.9746 94.7391 48.7 85.9389 48.7C77.1386 48.7 69.684 50.9746 64.4108 55.3603C59.1144 59.7653 56.1199 66.2176 56.1199 74.3338ZM85.9389 60.919C90.7343 60.919 94.7223 62.1326 97.4908 64.3758C100.232 66.5969 101.875 69.9041 101.875 74.3338C101.875 78.7274 100.234 82.0179 97.4921 84.2316C94.7231 86.4674 90.7342 87.681 85.9389 87.681C81.1436 87.681 77.173 86.4675 74.4219 84.2334C71.6978 82.0211 70.0709 78.7308 70.0709 74.3338C70.0709 69.9007 71.6996 66.5936 74.4232 64.374C77.1738 62.1325 81.1435 60.919 85.9389 60.919Z" stroke="#24A9F4" stroke-width="2"/>
</svg>
