<svg aria-hidden="true" style="position: absolute; width: 0; height: 0; overflow: hidden;" version="1.1" xmlns="http://www.w3.org/2000/svg" xmlns:xlink="http://www.w3.org/1999/xlink">
<defs>
<symbol id="icon-about" viewBox="0 0 305 32">
<path d="M22.845 0.572h-8.621l-14.224 30.812h7.974l4.138-9.111h12.759l4.181 9.111h8.060l-14.267-30.812zM18.491 7.703l3.879 8.451h-7.715c1.25-2.817 2.586-5.634 3.836-8.451z"></path>
<path d="M62.664 31.384c6.465 0 10.819-3.829 10.819-9.552 0-3.477-1.853-6.382-4.569-8.011 1.293-1.277 2.198-3.169 2.198-5.37 0-4.93-3.922-7.879-9.784-7.879h-19.353v30.812h20.69zM62.276 17.783c2.198 0 3.664 1.408 3.664 3.741 0 2.289-1.422 3.697-3.621 3.697h-12.974v-7.439h12.931zM61.069 6.779c1.595 0 2.715 0.88 2.715 2.509 0 1.585-1.121 2.421-2.629 2.421h-11.81v-4.93h11.724z"></path>
<path d="M77.182 16.022c0 10.168 7.285 15.978 18.19 15.978s18.19-5.81 18.19-15.978c0-10.212-7.285-16.022-18.19-16.022s-18.19 5.81-18.19 16.022zM95.371 6.646c6.25 0 10.69 3.257 10.69 9.376 0 6.074-4.44 9.331-10.69 9.331s-10.647-3.257-10.647-9.331c0-6.118 4.397-9.376 10.647-9.376z"></path>
<path d="M142.526 17.21c0 5.194-3.577 8.143-8.318 8.143-5.043 0-8.276-2.993-8.276-8.143v-16.638h-7.371v16.814c0 9.419 6.12 14.614 15.646 14.614 9.569 0 15.689-5.194 15.689-14.614v-16.814h-7.371v16.638z"></path>
<path d="M186.738 7.263v-6.691h-33.189v6.691h12.888v24.121h7.37v-24.121h12.931z"></path>
<path d="M233.041 7.263v-6.691h-33.189v6.691h12.888v24.121h7.371v-24.121h12.931z"></path>
<path d="M261.63 31.384h7.371v-30.812h-7.371v9.684h-16.594v-9.684h-7.371v30.812h7.371v-14.437h16.594v14.437z"></path>
<path d="M304.762 31.384v-6.382h-19.612v-7.483h17.63v-6.25h-17.63v-4.27h19.44v-6.426h-26.811v30.812h26.983z"></path>
</symbol>
<symbol id="icon-chevron-left" viewBox="0 0 32 32">
<path fill="none" stroke="#101010" stroke-linejoin="round" stroke-linecap="square" stroke-miterlimit="4" stroke-width="2.6667" d="M12 8l8 8-8 8"></path>
</symbol>
<symbol id="icon-close-menu" viewBox="0 0 32 32">
<path stroke-linejoin="round" stroke-linecap="square" stroke-miterlimit="4" stroke-width="2.2857" d="M29.714 2.286l-27.429 27.429"></path>
<path stroke-linejoin="round" stroke-linecap="square" stroke-miterlimit="4" stroke-width="2.2857" d="M2.286 2.286l27.429 27.429"></path>
</symbol>
<symbol id="icon-dark-theme" viewBox="0 0 42 32">
<path fill="#3d3d3d" style="fill: var(--color5, #3d3d3d)" d="M12.8 0h12.8c7.069 0 12.8 5.731 12.8 12.8s-5.731 12.8-12.8 12.8h-12.8c-7.069 0-12.8-5.731-12.8-12.8s5.731-12.8 12.8-12.8z"></path>
<path fill="#575757" style="fill: var(--color1, #575757)" d="M25.6 0c7.069 0 12.8 5.731 12.8 12.8s-5.731 12.8-12.8 12.8c-7.069 0-12.8-5.731-12.8-12.8s5.731-12.8 12.8-12.8z"></path>
<path fill="none" stroke="#707070" style="stroke: var(--color6, #707070)" stroke-linejoin="miter" stroke-linecap="butt" stroke-miterlimit="4" stroke-width="0.8" d="M25.6 0.4c6.848 0 12.4 5.552 12.4 12.4s-5.552 12.4-12.4 12.4c-6.848 0-12.4-5.552-12.4-12.4s5.552-12.4 12.4-12.4z"></path>
<path fill="#fff" style="fill: var(--color2, #fff)" d="M32 13.377c-0.112 1.213-0.567 2.369-1.312 3.333s-1.749 1.695-2.895 2.109c-1.146 0.414-2.386 0.493-3.575 0.228s-2.278-0.863-3.139-1.725c-0.861-0.861-1.46-1.95-1.725-3.139s-0.186-2.429 0.228-3.575 1.145-2.15 2.109-2.895c0.964-0.745 2.12-1.2 3.333-1.312-0.71 0.961-1.052 2.145-0.963 3.336s0.602 2.312 1.447 3.156c0.845 0.845 1.965 1.358 3.156 1.447s2.375-0.253 3.336-0.963v0z"></path>
</symbol>
<symbol id="icon-facebook" viewBox="0 0 32 32">
<path d="M0 16.089c0 7.955 5.777 14.569 13.333 15.911v-11.556h-4v-4.444h4v-3.556c0-4 2.577-6.221 6.223-6.221 1.155 0 2.4 0.177 3.555 0.355v4.089h-2.044c-1.956 0-2.4 0.977-2.4 2.223v3.111h4.267l-0.711 4.444h-3.556v11.556c7.556-1.341 13.333-7.955 13.333-15.911 0-8.849-7.2-16.089-16-16.089s-16 7.24-16 16.089z"></path>
</symbol>
<symbol id="icon-instagram" viewBox="0 0 32 32">
<path d="M15.996 10.664c-2.938 0-5.336 2.398-5.336 5.336s2.398 5.336 5.336 5.336c2.938 0 5.335-2.398 5.335-5.336s-2.398-5.336-5.335-5.336zM31.998 16c0-2.209 0.020-4.399-0.104-6.604-0.124-2.562-0.708-4.835-2.582-6.709-1.877-1.877-4.147-2.458-6.708-2.582-2.209-0.124-4.399-0.104-6.604-0.104-2.209 0-4.399-0.020-6.604 0.104-2.562 0.124-4.835 0.708-6.708 2.582-1.877 1.877-2.458 4.147-2.582 6.709-0.124 2.21-0.104 4.399-0.104 6.604s-0.020 4.399 0.104 6.604c0.124 2.562 0.708 4.835 2.582 6.709 1.877 1.877 4.147 2.458 6.708 2.582 2.209 0.124 4.399 0.104 6.604 0.104 2.209 0 4.399 0.020 6.604-0.104 2.562-0.124 4.835-0.709 6.708-2.582 1.877-1.877 2.458-4.147 2.582-6.709 0.128-2.205 0.104-4.395 0.104-6.604v0zM15.996 24.21c-4.543 0-8.209-3.667-8.209-8.21s3.666-8.21 8.209-8.21c4.543 0 8.209 3.666 8.209 8.21s-3.666 8.21-8.209 8.21zM24.541 9.372c-1.061 0-1.917-0.857-1.917-1.917s0.857-1.917 1.917-1.917c1.061 0 1.917 0.857 1.917 1.917 0 0.252-0.049 0.501-0.145 0.734s-0.237 0.444-0.416 0.622-0.39 0.319-0.622 0.416c-0.233 0.096-0.482 0.146-0.734 0.145v0z"></path>
</symbol>
<symbol id="icon-light-theme" viewBox="0 0 42 32">
<path fill="#575757" style="fill: var(--color1, #575757)" d="M16 0h12.8c7.069 0 12.8 5.731 12.8 12.8s-5.731 12.8-12.8 12.8h-12.8c-7.069 0-12.8-5.731-12.8-12.8s5.731-12.8 12.8-12.8z"></path>
<path fill="#fff" style="fill: var(--color2, #fff)" d="M16 0c7.069 0 12.8 5.731 12.8 12.8s-5.731 12.8-12.8 12.8c-7.069 0-12.8-5.731-12.8-12.8s5.731-12.8 12.8-12.8z"></path>
<path fill="none" stroke="#ddd" style="stroke: var(--color3, #ddd)" stroke-linejoin="miter" stroke-linecap="butt" stroke-miterlimit="4" stroke-width="0.8" d="M16 0.4c6.848 0 12.4 5.552 12.4 12.4s-5.552 12.4-12.4 12.4c-6.848 0-12.4-5.552-12.4-12.4s5.552-12.4 12.4-12.4z"></path>
<path fill="#101010" style="fill: var(--color4, #101010)" d="M16 10.174c-1.45 0-2.626 1.176-2.626 2.626s1.176 2.626 2.626 2.626c1.45 0 2.626-1.176 2.626-2.626s-1.176-2.626-2.626-2.626zM12.062 12.8c0-2.175 1.763-3.938 3.938-3.938s3.938 1.763 3.938 3.938c0 2.175-1.763 3.938-3.938 3.938s-3.938-1.763-3.938-3.938z"></path>
<path fill="#101010" style="fill: var(--color4, #101010)" d="M16 4.923c0.363 0 0.656 0.294 0.656 0.656v1.313c0 0.363-0.294 0.656-0.656 0.656s-0.656-0.294-0.656-0.656v-1.313c0-0.363 0.294-0.656 0.656-0.656z"></path>
<path fill="#101010" style="fill: var(--color4, #101010)" d="M16 18.051c0.363 0 0.656 0.294 0.656 0.656v1.313c0 0.363-0.294 0.656-0.656 0.656s-0.656-0.294-0.656-0.656v-1.313c0-0.363 0.294-0.656 0.656-0.656z"></path>
<path fill="#101010" style="fill: var(--color4, #101010)" d="M10.429 7.228c0.256-0.256 0.672-0.256 0.928 0l0.932 0.932c0.256 0.256 0.256 0.672 0 0.928s-0.672 0.256-0.928 0l-0.932-0.932c-0.256-0.256-0.256-0.672 0-0.928z"></path>
<path fill="#101010" style="fill: var(--color4, #101010)" d="M19.711 16.51c0.256-0.256 0.672-0.256 0.928 0l0.932 0.932c0.256 0.256 0.256 0.672 0 0.928s-0.672 0.256-0.928 0l-0.932-0.932c-0.256-0.256-0.256-0.672 0-0.928z"></path>
<path fill="#101010" style="fill: var(--color4, #101010)" d="M8.123 12.8c0-0.363 0.294-0.656 0.656-0.656h1.313c0.363 0 0.656 0.294 0.656 0.656s-0.294 0.656-0.656 0.656h-1.313c-0.363 0-0.656-0.294-0.656-0.656z"></path>
<path fill="#101010" style="fill: var(--color4, #101010)" d="M21.251 12.8c0-0.363 0.294-0.656 0.656-0.656h1.313c0.362 0 0.656 0.294 0.656 0.656s-0.294 0.656-0.656 0.656h-1.313c-0.362 0-0.656-0.294-0.656-0.656z"></path>
<path fill="#101010" style="fill: var(--color4, #101010)" d="M12.289 16.51c0.256 0.256 0.256 0.672 0 0.928l-0.932 0.932c-0.256 0.256-0.672 0.256-0.928 0s-0.256-0.672 0-0.928l0.932-0.932c0.256-0.256 0.672-0.256 0.928 0z"></path>
<path fill="#101010" style="fill: var(--color4, #101010)" d="M21.571 7.228c0.256 0.256 0.256 0.672 0 0.928l-0.932 0.932c-0.256 0.256-0.672 0.256-0.928 0s-0.256-0.672 0-0.928l0.932-0.932c0.256-0.256 0.672-0.256 0.928 0z"></path>
</symbol>
<symbol id="icon-menu" viewBox="0 0 32 32">
<path stroke-linejoin="miter" stroke-linecap="butt" stroke-miterlimit="4" stroke-width="0.6667" d="M0.333 0.333h31.333v31.333h-31.333v-31.333z"></path>
<path fill="none" stroke="#fff" style="stroke: var(--color2, #fff)" stroke-linejoin="miter" stroke-linecap="butt" stroke-miterlimit="4" stroke-width="1.3333" d="M8 10h16"></path>
<path fill="none" stroke="#fff" style="stroke: var(--color2, #fff)" stroke-linejoin="miter" stroke-linecap="butt" stroke-miterlimit="4" stroke-width="1.3333" d="M8 15.333h16"></path>
<path fill="none" stroke="#fff" style="stroke: var(--color2, #fff)" stroke-linejoin="miter" stroke-linecap="butt" stroke-miterlimit="4" stroke-width="1.3333" d="M8 20.667h16"></path>
</symbol>
<symbol id="icon-project" viewBox="0 0 199 32">
<path stroke-linejoin="miter" stroke-linecap="butt" stroke-miterlimit="4" stroke-width="1" d="M1 1.036h-0.5v29.886h8.121v-11.761h10.452c3.246 0 6.092-0.692 8.139-2.191 2.070-1.515 3.271-3.816 3.271-6.893 0-2.759-1.068-5.035-2.907-6.615-1.831-1.574-4.391-2.426-7.337-2.426h-19.238zM76.802 17.094v-0.762l-7.371 3.199v1.814c0 6.039 5.002 10.156 11.618 10.156 3.973 0 7.115-1.188 9.261-3.43 2.144-2.238 3.231-5.462 3.231-9.409v-17.625h-14.867v7.272h6.746v10.353c0 2.066-0.362 3.442-1.050 4.298-0.668 0.831-1.724 1.268-3.364 1.268-1.368 0-2.392-0.483-3.086-1.354-0.707-0.887-1.12-2.237-1.12-4.047v-1.733zM126.575 30.922h0.5v-6.983h-18.947v-6.015h17.032v-6.86h-17.031v-3.003h18.781v-7.025h-26.901v29.886h26.567zM164.418 8.154l0.449-0.272-0.294-0.435c-2.906-4.299-8.374-6.946-15.53-6.946-5.348 0-9.866 1.382-13.056 4.036-3.202 2.663-5.016 6.565-5.016 11.485 0 4.9 1.815 8.791 5.017 11.449 3.19 2.648 7.708 4.030 13.056 4.030 7.242 0 12.752-2.731 15.617-7.075l0.286-0.434-6.958-4.203-0.256 0.436c-1.506 2.563-4.553 4.045-8.689 4.045-2.941 0-5.389-0.744-7.091-2.127-1.689-1.372-2.694-3.411-2.694-6.122 0-2.733 1.006-4.782 2.694-6.158 1.702-1.387 4.15-2.131 7.091-2.131 4.094 0 7.060 1.441 8.565 3.965l0.258 0.433 6.552-3.975zM197.5 8.309h0.5v-7.272h-33.064v7.272h12.451v22.613h8.12v-22.613h11.993zM20.030 7.979c0.758 0 1.298 0.218 1.646 0.555 0.346 0.335 0.561 0.845 0.561 1.544 0 0.724-0.217 1.243-0.563 1.582-0.347 0.34-0.886 0.559-1.644 0.559h-11.409v-4.241h11.409zM31.829 16.021c0 4.9 1.814 8.791 5.016 11.449 3.19 2.648 7.708 4.030 13.056 4.030s9.866-1.382 13.056-4.030c3.202-2.658 5.016-6.549 5.016-11.449 0-4.92-1.814-8.822-5.016-11.485-3.191-2.653-7.709-4.036-13.057-4.036s-9.866 1.382-13.057 4.036c-3.202 2.663-5.016 6.565-5.016 11.485zM49.902 7.731c2.941 0 5.4 0.744 7.113 2.132 1.7 1.377 2.714 3.426 2.714 6.157 0 2.709-1.014 4.748-2.714 6.121-1.713 1.383-4.172 2.128-7.113 2.128s-5.389-0.744-7.092-2.127c-1.689-1.372-2.694-3.411-2.694-6.122 0-2.733 1.005-4.782 2.694-6.158 1.702-1.387 4.15-2.131 7.091-2.131z"></path>
</symbol>
<symbol id="icon-telegram" viewBox="0 0 32 32">
<path d="M32 16c0 8.836-7.164 16-16 16s-16-7.164-16-16c0-8.836 7.164-16 16-16s16 7.164 16 16zM16.573 11.812c-1.556 0.647-4.667 1.987-9.331 4.019-0.757 0.301-1.155 0.596-1.191 0.884-0.061 0.488 0.549 0.68 1.379 0.94 0.113 0.036 0.231 0.072 0.351 0.112 0.817 0.265 1.916 0.576 2.487 0.588 0.519 0.011 1.097-0.203 1.736-0.64 4.357-2.943 6.607-4.429 6.748-4.461 0.1-0.023 0.239-0.052 0.332 0.032 0.093 0.083 0.084 0.24 0.075 0.283-0.061 0.257-2.453 2.483-3.693 3.635-0.387 0.359-0.66 0.613-0.716 0.672-0.125 0.129-0.253 0.253-0.376 0.372-0.76 0.731-1.328 1.28 0.032 2.176 0.653 0.431 1.176 0.787 1.697 1.141 0.569 0.388 1.137 0.775 1.873 1.257 0.187 0.123 0.365 0.249 0.54 0.373 0.663 0.473 1.259 0.897 1.995 0.831 0.427-0.040 0.869-0.441 1.093-1.64 0.529-2.835 1.572-8.973 1.813-11.504 0.015-0.21 0.006-0.421-0.027-0.629-0.019-0.168-0.101-0.323-0.229-0.433-0.191-0.156-0.487-0.189-0.62-0.187-0.601 0.011-1.524 0.332-5.968 2.18v0z"></path>
</symbol>
</defs>
</svg>
